<svg width="754" height="345" viewBox="0 0 754 345" fill="none" xmlns="http://www.w3.org/2000/svg">
<g clip-path="url(#clip0_65_3426)">
<path d="M229.607 150C227.966 149.141 226.091 148.516 224.293 147.734C238.907 142.656 251.646 136.25 261.649 128.047C273.137 118.516 280.405 107.266 280.249 93.2031C280.015 77.8125 271.184 62.7344 255.397 48.9063C239.611 35.0781 218.275 23.3594 195.299 15C172.166 6.64062 149.503 2.5 127.855 2.42188C85.5752 2.34375 42.983 2.26562 0.078125 2.26562V337.5C45.6401 335.938 90.5769 334.922 135.201 334.375C157.005 334.141 175.058 328.281 189.203 317.187C203.427 306.172 213.196 291.25 221.636 274.297C230.076 257.344 236.797 239.687 243.127 221.797C249.458 203.906 253.287 189.922 251.49 177.891C249.692 166.016 242.815 156.719 229.764 150H229.607ZM150.362 35.2344C174.198 35.7813 195.846 41.5625 213.977 51.9531C231.952 62.3438 242.971 75.625 243.753 90.7812C244.456 106.406 235.234 117.5 220.464 125.547C205.381 133.594 186.624 137.5 162.71 137.891C129.496 138.359 92.8432 140.156 51.814 143.75C54.2367 107.344 53.6115 71.4844 45.4838 33.9844C82.2929 33.9844 117.148 34.4531 150.362 35.3125V35.2344ZM184.045 270.547C171.307 283.828 155.051 291.406 133.716 292.422C102.612 294.062 70.5702 296.797 36.8872 300.781C39.1536 255.469 45.2493 214.219 49.235 174.141C92.9214 168.828 131.293 166.094 165.914 165.078C189.516 164.453 204.755 169.375 212.258 178.906C219.917 188.594 218.51 201.875 211.789 221.016C204.99 240.234 196.706 257.266 183.967 270.469L184.045 270.547Z" fill="#1A1A1A"/>
<path d="M423.265 114.531C411.855 113.437 400.445 114.531 388.801 117.734C377.156 120.937 365.981 126.719 354.336 134.844C347.459 139.688 340.582 145.625 333.548 152.656C340.738 140 346.99 127.266 350.35 113.516C340.66 112.5 330.735 111.406 320.653 110.469C307.836 175 228.982 220.703 272.512 333.75C283.766 333.75 295.098 333.75 306.352 333.906C283.063 283.75 286.423 247.344 298.693 216.562C307.524 194.922 320.966 179.844 334.095 168.594C347.459 157.422 360.276 149.687 373.014 145.156C385.675 140.703 397.319 138.984 408.182 140.312C423.187 142.109 432.487 148.672 435.379 159.688C438.505 170.781 433.19 185.703 423.422 205.078C406.228 240.156 401.305 277.813 445.929 335.156C457.417 335.313 468.905 335.391 480.394 335.547C433.112 278.906 437.176 241.328 454.057 205.234C466.639 179.453 473.438 158.75 467.342 142.578C461.637 126.484 446.007 116.797 423.265 114.609V114.531Z" fill="#1A1A1A"/>
<path d="M719.301 0C720.082 57.5 713.049 108.281 707.969 156.797C705.234 152.5 702.186 148.438 698.591 144.766C688.744 135.078 677.256 128.047 663.97 123.516C650.606 118.906 636.148 117.266 619.971 118.594C598.402 120.312 578.786 126.641 559.092 137.031C539.476 147.422 521.345 160.078 504.542 174.766C487.896 189.531 473.985 205.312 468.358 224.375C462.732 243.594 468.046 262.422 484.458 280.703C500.713 298.984 526.19 315.156 553.934 327.031C581.912 339.062 608.405 345 631.303 345C652.247 345 666.627 340.391 679.444 331.953C691.089 324.141 700.857 313.906 709.063 301.094C711.173 313.047 713.987 325.156 717.66 337.5C729.773 337.5 741.965 337.5 754.234 337.5V0H719.535H719.301ZM658.5 304.844C645.292 311.016 630.756 313.984 613.016 313.594C594.338 313.203 575.503 308.75 557.294 300.391C539.163 292.109 523.455 281.016 513.217 268.125C502.901 255.156 499.306 241.406 502.745 226.875C506.183 212.266 515.327 199.844 527.128 188.594C539.085 177.344 552.683 168.125 567.766 160.781C582.85 153.438 598.167 149.141 614.891 147.969C631.928 146.797 646.621 149.219 659.594 155.703C672.567 162.188 683.117 171.797 691.01 184.844C698.904 197.969 702.967 213.984 702.811 232.656C702.811 242.109 702.967 251.562 703.514 261.094C700.623 267.266 696.872 273.203 692.261 278.672C682.805 290 671.551 298.672 658.343 304.766L658.5 304.844Z" fill="#1A1A1A"/>
</g>
<defs>
<clipPath id="clip0_65_3426">
<rect width="754" height="345" fill="white"/>
</clipPath>
</defs>
</svg>
